<svg width="256" height="275" viewBox="0 0 256 275" fill="none" xmlns="http://www.w3.org/2000/svg">
<path d="M214 254C214 265.598 204.598 275 193 275C181.402 275 172 265.598 172 254C172 242.402 181.402 233 193 233C204.598 233 214 242.402 214 254Z" fill="#CC9DFF" fill-opacity="0.5"/>
<path d="M256 85.5C256 132.72 217.72 171 170.5 171C123.28 171 85 132.72 85 85.5C85 38.2797 123.28 0 170.5 0C217.72 0 256 38.2797 256 85.5Z" fill="#DCC6F4" fill-opacity="0.7"/>
<path d="M171 147.5C171 194.72 132.72 233 85.5 233C38.2797 233 0 194.72 0 147.5C0 100.28 38.2797 62 85.5 62C132.72 62 171 100.28 171 147.5Z" fill="#CC9DFF" fill-opacity="0.7"/>
</svg>
