<svg width="360" height="800" viewBox="0 0 360 800" fill="none" xmlns="http://www.w3.org/2000/svg">
<mask id="mask0_191_104" style="mask-type:alpha" maskUnits="userSpaceOnUse" x="0" y="0" width="360" height="800">
<rect width="360" height="800" fill="#D9D9D9"/>
</mask>
<g mask="url(#mask0_191_104)">
<g clip-path="url(#clip0_191_104)">
<path d="M430 725.331L303.955 775.11L276.377 786L216.726 765.199L165.817 747.448L161.588 745.974L155.392 730.272L130.753 667.847L118.386 636.508L114.667 627.088L111.977 620.27L105.982 605.081L96.2755 580.49L117.477 572.118L137.726 564.12L152.281 558.373L335.538 486L430 725.331Z" fill="#F2F2F2"/>
<path d="M42.1387 645.904C43.6693 645.573 45.2689 645.863 46.5855 646.711C47.9021 647.56 48.828 648.896 49.1593 650.427C49.4907 651.958 49.2005 653.558 48.3525 654.875C47.5045 656.192 46.1682 657.119 44.6376 657.45C41.4502 658.14 33 653.927 33 653.927C33 653.927 38.9514 646.595 42.1387 645.904Z" fill="#CC9DFF"/>
<path d="M43.5496 767.173C44.5517 765.969 45.9908 765.213 47.5504 765.07C49.1099 764.928 50.6622 765.411 51.8658 766.413C53.0693 767.415 53.8254 768.855 53.9679 770.415C54.1103 771.975 53.6274 773.528 52.6253 774.732C50.5387 777.239 41.2866 779.123 41.2866 779.123C41.2866 779.123 41.4629 769.68 43.5496 767.173Z" fill="#CC9DFF"/>
<path d="M299.64 574.865C290.128 558.787 271.308 558.038 271.308 558.038C271.308 558.038 252.969 555.692 241.205 580.179C230.24 603.002 215.106 625.039 238.769 630.382L243.043 617.075L245.69 631.372C249.059 631.615 252.438 631.673 255.814 631.545C281.154 630.727 305.287 631.785 304.51 622.689C303.477 610.598 308.793 590.335 299.64 574.865Z" fill="#2F2E41"/>
<path d="M260.595 608.514C263.873 615.767 265.94 624.412 267.174 634.015L293.49 632.37C287.44 623.794 285.431 613.951 287.733 602.756L260.595 608.514Z" fill="#FFB8B8"/>
<path opacity="0.2" d="M260.595 608.514C263.873 615.767 265.94 624.412 267.174 634.015L293.49 632.37C287.44 623.794 285.431 613.951 287.733 602.756L260.595 608.514Z" fill="black"/>
<path d="M138.499 746.602C138.499 746.602 124.879 753.9 131.79 760.13C138.702 766.36 147.831 751.883 147.831 751.883L138.499 746.602Z" fill="#FFB8B8"/>
<path d="M305.003 725.323L304.79 735.293L304.336 756.835L303.955 775.11L276.377 786L216.726 765.199L220.65 743.401L223.82 725.8L225.234 717.919L296.78 708.048L305.003 725.323Z" fill="#2F2E41"/>
<path d="M305.003 725.323L304.789 735.293C279.477 734.643 240.242 728.531 223.819 725.8L225.234 717.92L296.779 708.049L305.003 725.323Z" fill="#3F3D56"/>
<path d="M273.342 615.506C284.696 615.506 293.901 606.299 293.901 594.941C293.901 583.584 284.696 574.376 273.342 574.376C261.988 574.376 252.783 583.584 252.783 594.941C252.783 606.299 261.988 615.506 273.342 615.506Z" fill="#FFB8B8"/>
<path d="M312.815 736.428C312.815 736.428 315.282 758.638 300.48 756.993L298.013 734.783L284.855 721.621L247.849 720.799L220.711 746.299C220.711 746.299 219.889 719.976 223.178 717.508C226.467 715.041 233.869 709.282 233.869 709.282V705.169L211.665 659.927C211.665 659.927 224.823 632.781 235.513 631.958L249.494 631.136C249.494 631.136 254.428 628.668 254.428 627.845C254.428 627.023 253.605 620.442 257.717 622.087C257.717 622.087 258.087 613.647 262.421 616.222C262.421 616.222 276.064 626.916 289.913 616.691C289.913 616.691 296.368 615.506 295.546 618.797C294.723 622.087 295.546 624.555 297.191 624.555C298.835 624.555 306.236 627.023 306.236 628.668C306.236 629.022 306.771 632.427 307.61 637.552V637.56C310.661 656.241 317.75 697.766 317.75 697.766C317.75 697.766 325.151 708.46 312.815 736.428Z" fill="#CC9DFF"/>
<path d="M217.421 655.814L211.665 659.927L159.034 727.38L131.073 749.59C131.073 749.59 146.698 747.122 143.409 760.284L239.625 705.17L217.421 655.814Z" fill="#CC9DFF"/>
<path d="M307.61 637.552V637.56C306.516 643.993 270.875 642.652 265.941 642.652C261.007 642.652 256.895 641.829 251.961 638.539C247.026 635.249 249.494 631.136 249.494 631.136C249.494 631.136 253.695 627.935 253.695 627.112C253.695 626.29 252.872 619.709 256.984 621.354C256.984 621.354 257.354 612.914 261.688 615.489C261.688 615.489 276.064 626.916 289.913 616.691C289.913 616.691 296.368 615.506 295.546 618.797C294.723 622.087 295.546 624.555 297.19 624.555C298.835 624.555 306.236 627.023 306.236 628.668C306.236 629.022 306.771 632.427 307.61 637.552Z" fill="#3F3D56"/>
<path d="M303.358 606.869C303.358 606.869 296.779 592.885 290.2 599.466C283.622 606.046 297.602 615.918 297.602 615.918L303.358 606.869Z" fill="#FFB8B8"/>
<path d="M303.358 603.579C303.358 603.579 293.199 616.421 290.055 617.403C290.055 617.403 299.246 653.757 310.759 663.628L317.338 697.355C317.338 697.355 345.299 685.838 338.72 666.919C338.654 666.729 338.588 666.541 338.523 666.354C333.03 650.598 325.449 635.65 315.983 621.91L303.358 603.579Z" fill="#CC9DFF"/>
<path opacity="0.2" d="M297.93 641.667L318.161 697.355L310.759 663.628L297.93 641.667Z" fill="black"/>
<path d="M295.434 573.315L276.841 563.573L251.165 567.558L245.853 591.028L259.077 590.519L262.771 581.897V590.377L268.873 590.142L272.414 576.415L274.628 591.028L296.32 590.585L295.434 573.315Z" fill="#2F2E41"/>
<path d="M135.929 756.672C123.148 749.545 115.191 739.814 112.28 727.751C110.118 718.795 110.739 708.716 114.126 697.795C116.637 689.743 120.401 682.138 125.28 675.259C151.164 638.61 153.5 614.729 150.902 601.15C148.053 586.26 138.798 580.076 138.705 580.015L139.105 579.401C139.2 579.463 148.699 585.79 151.616 600.982C153.298 609.741 152.507 619.727 149.265 630.665C145.23 644.277 137.361 659.423 125.879 675.682C121.044 682.498 117.314 690.034 114.826 698.012C109.272 715.924 108.486 740.529 136.286 756.032L135.929 756.672Z" fill="#2F2E41"/>
<path d="M112.586 688.811C102.51 683.192 102.79 674.288 104.8 667.808C105.691 664.949 107.027 662.25 108.759 659.808C117.827 646.969 118.646 638.628 117.737 633.892C116.749 628.749 113.581 626.638 113.549 626.617L113.949 626.003C114.09 626.094 117.411 628.308 118.457 633.754C119.818 640.846 116.757 649.754 109.358 660.231C107.67 662.61 106.368 665.24 105.5 668.025C103.571 674.246 103.296 682.791 112.943 688.171L112.586 688.811Z" fill="#2F2E41"/>
<path d="M157.92 607.44L157.563 606.799C167.21 601.42 166.935 592.875 165.006 586.653C164.137 583.869 162.836 581.239 161.148 578.86C153.748 568.383 150.687 559.475 152.049 552.383C153.095 546.936 156.416 544.723 156.557 544.631L156.957 545.246C156.925 545.267 153.74 547.406 152.763 552.55C151.864 557.283 152.692 565.617 161.747 578.437C163.478 580.878 164.815 583.578 165.706 586.436C167.715 592.916 167.996 601.821 157.92 607.44Z" fill="#2F2E41"/>
<path d="M179.433 570.968C178.645 572.178 177.625 573.221 176.434 574.037C175.242 574.853 173.902 575.426 172.489 575.723C171.076 576.021 169.618 576.037 168.199 575.771C166.78 575.505 165.427 574.962 164.217 574.173C163.008 573.383 161.966 572.364 161.151 571.171C160.335 569.979 159.763 568.638 159.466 567.225C159.169 565.811 159.153 564.353 159.42 562.933C159.686 561.514 160.23 560.161 161.019 558.951C164.337 553.865 181.038 548.383 181.038 548.383C181.038 548.383 182.75 565.882 179.433 570.968Z" fill="#CC9DFF"/>
<path d="M175.402 536.88C174.614 538.09 173.595 539.133 172.403 539.949C171.212 540.764 169.871 541.338 168.458 541.635C167.045 541.933 165.587 541.949 164.168 541.683C162.749 541.417 161.396 540.874 160.187 540.084C158.977 539.295 157.935 538.275 157.12 537.083C156.305 535.891 155.732 534.55 155.435 533.136C155.138 531.723 155.123 530.265 155.389 528.845C155.656 527.426 156.199 526.073 156.989 524.863C160.306 519.777 177.007 514.294 177.007 514.294C177.007 514.294 178.72 531.794 175.402 536.88Z" fill="#CC9DFF"/>
<path d="M157.684 661.765C155.105 661.77 152.601 660.896 150.585 659.288C148.568 657.679 147.159 655.433 146.588 652.917C146.018 650.401 146.32 647.766 147.445 645.445C148.571 643.123 150.453 641.254 152.781 640.145C158.314 637.508 174.91 641.369 175.614 641.534L176.059 641.639L175.86 642.051C175.545 642.702 168.085 658.024 162.551 660.661C161.032 661.388 159.369 661.765 157.684 661.765ZM158.608 639.96C156.358 639.96 154.385 640.193 153.096 640.807C150.552 642.019 148.593 644.193 147.651 646.85C146.709 649.507 146.86 652.43 148.072 654.975C149.284 657.52 151.458 659.479 154.114 660.422C156.77 661.364 159.692 661.212 162.236 660C167.05 657.706 173.745 644.65 174.996 642.146C172.995 641.701 164.763 639.96 158.608 639.96Z" fill="#2F2E41"/>
<path d="M135.282 560.879C136.349 561.852 137.214 563.025 137.827 564.333C138.44 565.64 138.79 567.055 138.857 568.498C138.923 569.94 138.705 571.382 138.215 572.74C137.724 574.098 136.971 575.346 135.999 576.413C135.026 577.48 133.853 578.345 132.546 578.959C131.239 579.572 129.824 579.922 128.382 579.989C126.94 580.055 125.499 579.837 124.141 579.346C122.783 578.856 121.535 578.103 120.469 577.13C115.982 573.038 113.254 555.668 113.254 555.668C113.254 555.668 130.796 556.787 135.282 560.879Z" fill="#CC9DFF"/>
<path d="M109.632 607.063C111.786 609.028 113.072 611.768 113.207 614.681C113.341 617.595 112.313 620.442 110.348 622.597C108.384 624.752 105.644 626.038 102.732 626.173C99.8193 626.307 96.9728 625.279 94.8184 623.314C90.3322 619.222 87.6036 601.852 87.6036 601.852C87.6036 601.852 105.146 602.971 109.632 607.063Z" fill="#CC9DFF"/>
<path d="M138.383 613.54C134.714 613.54 127.698 610.064 127.376 609.904L126.967 609.7L127.255 609.345C127.502 609.041 133.325 601.904 136.601 601.195C138.226 600.843 139.925 601.151 141.324 602.052C142.722 602.953 143.705 604.373 144.057 605.999C144.409 607.625 144.101 609.324 143.2 610.723C142.299 612.122 140.88 613.105 139.255 613.457C138.968 613.515 138.676 613.543 138.383 613.54ZM128.121 609.45C129.849 610.275 136.467 613.312 139.1 612.741C140.534 612.429 141.787 611.56 142.581 610.325C143.376 609.09 143.648 607.59 143.337 606.155C143.027 604.719 142.159 603.466 140.925 602.67C139.69 601.875 138.191 601.602 136.756 601.912C134.122 602.482 129.353 607.984 128.121 609.45Z" fill="#2F2E41"/>
<path d="M99.0309 762.671C99.8028 761.309 101.084 760.309 102.592 759.892C104.101 759.474 105.714 759.672 107.076 760.444C108.438 761.215 109.439 762.495 109.857 764.004C110.276 765.513 110.079 767.126 109.309 768.489C107.703 771.328 98.9353 774.833 98.9353 774.833C98.9353 774.833 97.4247 765.51 99.0309 762.671Z" fill="#CC9DFF"/>
<path d="M79.8513 699.778C77.3222 699.738 74.7989 699.52 72.3001 699.127L71.8487 699.054L72.0187 698.629C72.1638 698.266 75.6071 689.722 78.5246 688.072C79.2415 687.667 80.0312 687.406 80.8487 687.306C81.6661 687.206 82.4953 687.268 83.2888 687.488C84.0823 687.709 84.8247 688.083 85.4735 688.591C86.1223 689.098 86.6649 689.728 87.0702 690.445C87.4756 691.163 87.7357 691.952 87.8358 692.77C87.936 693.588 87.8741 694.417 87.6538 695.211C87.4335 696.005 87.059 696.747 86.5518 697.396C86.0446 698.045 85.4145 698.588 84.6976 698.993C83.6495 699.586 81.8037 699.778 79.8513 699.778ZM72.8762 698.473C74.771 698.747 81.9914 699.681 84.3369 698.356C85.6156 697.632 86.5548 696.431 86.9478 695.015C87.3408 693.599 87.1555 692.085 86.4325 690.806C85.7096 689.527 84.5083 688.588 83.093 688.195C81.6776 687.801 80.1641 687.987 78.8853 688.71C76.5402 690.036 73.6179 696.707 72.8762 698.473Z" fill="#2F2E41"/>
</g>
<circle cx="84" cy="170" r="21" fill="#CC9DFF" fill-opacity="0.5"/>
<circle cx="61.5" cy="1.5" r="85.5" fill="#DCC6F4" fill-opacity="0.7"/>
<circle cx="-23.5" cy="63.5" r="85.5" fill="#CC9DFF" fill-opacity="0.7"/>
</g>
<defs>
<clipPath id="clip0_191_104">
<rect width="397" height="300" fill="white" transform="translate(33 486)"/>
</clipPath>
</defs>
</svg>
